# xmcd
#
# Track frame offsets: 
#        150
#        22927
#        42090
#        59072
#        83560
#        101555
#        120737
#        138052
#        153785
#        177310
#        191250
#        207702
#        221617
#        241222
#
# Disc length: 3427 seconds
#
# Revision: 0
# Processed by: cddbd v1.5.1PL0 Copyright (c) Steve Scherf et al.
# Submitted via: ExactAudioCopy v0.95a3
#
DISCID=b70d610e
DTITLE=Вячеслав Малежик - Ночь, Ты И Я
DYEAR=1995
DGENRE=Pop
TTITLE0=Ночь, Ты И Я
TTITLE1=Любить По Памяти
TTITLE2=Жизнь Ва-Банк
TTITLE3=Лето Нашей Любви
TTITLE4=Попугай
TTITLE5=Украденное Счастье
TTITLE6=Емеля
TTITLE7=Ту-104
TTITLE8=Надым
TTITLE9=Посвящение Другу (Уезжаешь...)
TTITLE10=Наше Кафе
TTITLE11=Моцарт
TTITLE12=Странные Сны
TTITLE13=Если Я Забуду
EXTD=
EXTT0=
EXTT1=
EXTT2=
EXTT3=
EXTT4=
EXTT5=
EXTT6=
EXTT7=
EXTT8=
EXTT9=
EXTT10=
EXTT11=
EXTT12=
EXTT13=
PLAYORDER=
